<?xml version="1.0"?>
<svg xmlns="http://www.w3.org/2000/svg" height="160px" width="124px" xmlns:xlink="http://www.w3.org/1999/xlink">
<use xlink:href="#a" stroke="#332D5A" stroke-width="4"/>
<g stroke="#fff" stroke-width="1.75">
<path id="a" fill="#332D5A" d="m48.35 11.55c0 6.107 0.331 50.7-0.05 52.38-0.06 0.059-0.958 0.028-1-0.075-0.801-1.525-1.163-42.77-1.25-48.38-0.064-1.441-0.583-3.795-2.225-4.575-5.007-2.376-17.29-2.394-20.38 3.7-0.079 0.122-0.259 0.741-0.3 1.025-1.167 8.688 1.025 46.67 1.025 53.87-7.475-2.115-18.73-2.459-21.73 6.4 11.6 6.502 15.27 21.14 14.7 33.6 0.143 14.6 0.796 31.93 14.05 41.1 7.633 6.15 18.74 7.151 30.8 7.151 12.07 0 23.18-1.001 30.81-7.151 13.26-9.176 13.9-26.5 14.05-41.1-0.574-12.46 3.099-27.1 14.7-33.6-3.001-8.856-14.26-8.512-21.73-6.4 0-7.202 2.191-45.19 1.023-53.87-0.039-0.284-0.193-0.902-0.273-1.025-3.088-6.094-15.39-6.077-20.4-3.7-1.642 0.78-2.162 3.133-2.226 4.575-0.088 5.607-0.449 46.85-1.25 48.38-0.043 0.103-0.94 0.133-1 0.075-0.393-1.659-0.063-46.24-0.063-52.34 0-9.764-13.44-9.181-13.75-9.181s-13.46-0.611-13.46 9.141v-0.01z"/>
</g>
<path d="m99.81 111.8c-24.72 31.5-50.67 35.3-75.65-1.1 26.67-42.89 53.2-37.82 75.65 1.1z" stroke="#fff" stroke-width="1.4" fill="#3b5c8e"/>
<path d="m97.19 111.4c-21.98 27.8-49.28 26.35-70.38 0 24.48-31.61 50.31-24.4 70.38 0z" fill="#fff"/>
<circle cy="110.9" cx="62" r="14.6" fill="#332D5A"/>
<circle r="12.2" cy="110.9" stroke="#fff" cx="61.98" stroke-width="1.85" fill="#332D5A"/>
</svg>